#!OML:ASF H:\ManfredETheater\Project 1\Capture day 1\Session 1\subject.ASF
:FULLY-SPECIFIED
:DEGREES
61
root -0.480993 15.6625 9.51048 -183.384 -2.25745 -176.664
lowerback 18.1774 2.43065 1.80838
upperback 2.4865 3.30818 2.25568
thorax -7.52523 1.38806 0.619639
lowerneck -14.8769 -4.1447 -3.61968
upperneck 5.07756 -5.09921 2.05314
head 4.05054 -2.50596 0.813852
rclavicle -2.73329e-015 -2.54444e-014
rhumerus -35.2115 10.7518 -72.0099
rradius 71.9401
rwrist 1.91943
rhand -25.7932 5.36694
rfingers 7.12502
rthumb 0.74551 -24.6115
lclavicle -2.73329e-015 -2.54444e-014
lhumerus -57.3774 -10.2638 78.7222
lradius 66.3959
lwrist 0.789101
lhand -28.7798 -15.1747
lfingers 7.12502
lthumb -2.139 14.7944
rfemur -23.0412 -11.2758 30.1861
rtibia 74.0483
rfoot -24.1688 -6.00285
rtoes -36.6133
lfemur -55.7335 -5.31268 -12.8958
ltibia 52.3235
lfoot -11.6023 -5.54131
ltoes -18.7339
62
root -0.483848 15.6979 9.01061 -183.682 -1.35993 -176.411
lowerback 17.4268 2.71671 2.14695
upperback 2.45016 3.74836 2.29555
thorax -7.13626 1.60557 0.393929
lowerneck -14.5352 -4.20384 -3.7591
upperneck 5.43846 -5.14738 1.99754
head 4.1117 -2.53109 0.817725
rclavicle 9.79014e-015 2.38542e-015
rhumerus -34.41 11.4055 -72.6146
rradius 73.7265
rwrist 1.24169
rhand -25.9495 5.5371
rfingers 7.12502
rthumb 0.594508 -24.4418
lclavicle 9.79014e-015 2.38542e-015
lhumerus -58.9558 -10.2178 78.3529
lradius 66.3512
lwrist 0.921633
lhand -28.5977 -15.0295
lfingers 7.12502
lthumb -1.96321 14.9412
rfemur -20.4554 -10.7079 29.8932
rtibia 73.4864
rfoot -23.9396 -4.76162
rtoes -37.4355
lfemur -54.3414 -5.41052 -12.3916
ltibia 46.3342
lfoot -10.0929 -5.53008
ltoes -20.6373
63
root -0.486243 15.7196 8.50155 -183.968 -0.50464 -176.081
lowerback 16.6069 2.9738 2.53361
upperback 2.36844 4.15938 2.38862
thorax -6.75355 1.81179 0.217005
lowerneck -14.1891 -4.24418 -3.90276
upperneck 5.9182 -5.17019 1.92523
head 4.20775 -2.54522 0.818054
rclavicle 2.44008e-014 2.22639e-014
rhumerus -33.6707 12.0678 -73.2007
rradius 75.3031
rwrist 0.52806
rhand -26.071 5.68712
rfingers 7.12502
rthumb 0.477148 -24.2921
lclavicle 2.44008e-014 2.22639e-014
lhumerus -60.5918 -10.0649 77.9924
lradius 66.2894
lwrist 1.1381
lhand -28.4546 -14.923
lfingers 7.12502
lthumb -1.825 15.0489
rfemur -17.7988 -10.1405 29.687
rtibia 72.7463
rfoot -23.7897 -3.53434
rtoes -38.1819
lfemur -52.929 -5.51847 -11.8151
ltibia 41.0347
lfoot -8.8552 -4.99764
ltoes -22.3929
64
root -0.488112 15.7273 7.98438 -184.239 0.31143 -175.673
lowerback 15.7326 2.71476 2.83604
upperback 2.25778 4.6555 2.51568
thorax -6.39285 2.40279 0.0776177
lowerneck -13.8503 -4.265 -4.04132
upperneck 6.5072 -5.17054 1.84631
head 4.3377 -2.55008 0.816075
rclavicle -2.16178e-014 -3.26007e-014
rhumerus -32.9871 12.7144 -73.7745
rradius 76.6688
rwrist -0.0912433
rhand -26.1195 5.84092
rfingers 7.12502
rthumb 0.43035 -24.1384
lclavicle -2.16178e-014 -3.26007e-014
lhumerus -62.2897 -9.83517 77.6327
lradius 66.233
lwrist 1.42521
lhand -28.3471 -14.8589
lfingers 7.12502
lthumb -1.72116 15.1139
rfemur -15.0962 -9.58957 29.577
rtibia 71.8481
rfoot -23.6928 -2.34255
rtoes -38.8836
lfemur -51.591 -5.55497 -11.2504
ltibia 36.6631
lfoot -7.93979 -4.02149
ltoes -23.741
65
root -0.489795 15.7217 7.46126 -184.509 1.05171 -175.196
lowerback 14.8664 2.93747 3.34998
upperback 2.0747 4.98775 2.69487
thorax -6.08219 2.55114 -0.0390835
lowerneck -13.5274 -4.26428 -4.16237
upperneck 7.18507 -5.15002 1.7703
head 4.49669 -2.5465 0.812681
rclavicle 1.68967e-015 -2.22639e-014
rhumerus -32.3606 13.3195 -74.3473
rradius 77.8369
rwrist -0.510439
rhand -26.0822 6.00932
rfingers 7.12502
rthumb 0.46637 -23.9699
lclavicle 1.68967e-015 -2.22639e-014
lhumerus -64.0485 -9.56243 77.2675
lradius 66.1959
lwrist 1.76801
lhand -28.2854 -14.8684
lfingers 7.12502
lthumb -1.66152 15.1049
rfemur -12.3653 -9.11419 29.5443
rtibia 70.8296
rfoot -23.6134 -1.18828
rtoes -39.5097
lfemur -50.3863 -5.44054 -10.8218
ltibia 33.4073
lfoot -7.37806 -2.84789
ltoes -24.4532
66
root -0.490825 15.7036 6.93515 -184.782 1.72605 -174.665
lowerback 14.034 3.12796 3.90116
upperback 1.84623 5.28287 2.90255
thorax -5.8332 2.68163 -0.135656
lowerneck -13.239 -4.24404 -4.25406
upperneck 7.92973 -5.11384 1.69847
head 4.68088 -2.53719 0.805839
rclavicle -6.68413e-015 -6.36111e-015
rhumerus -31.7804 13.8638 -74.9242
rradius 78.8249
rwrist -0.67109
rhand -25.9664 6.17973
rfingers 7.12502
rthumb 0.578198 -23.7992
lclavicle -6.68413e-015 -6.36111e-015
lhumerus -65.8503 -9.2693 76.8879
lradius 66.1902
lwrist 2.13509
lhand -28.2458 -14.9161
lfingers 7.12502
lthumb -1.62328 15.0574
rfemur -9.64854 -8.72373 29.5751
rtibia 69.7457
rfoot -23.4775 -0.0538603
rtoes -40.0142
lfemur -49.3408 -5.06882 -10.6189
ltibia 31.358
lfoot -7.13364 -1.77841
ltoes -24.5047
67
root -0.490664 15.6732 6.40895 -185.05 2.35638 -174.097
lowerback 13.265 3.29395 4.4618
upperback 1.56776 5.54937 3.12918
thorax -5.66909 2.79772 -0.212386
lowerneck -12.9892 -4.20255 -4.30609
upperneck 8.72267 -5.06175 1.63151
head 4.88514 -2.52181 0.79429
rclavicle -3.44891e-014 1.47101e-014
rhumerus -31.2624 14.3364 -75.5215
rradius 79.6597
rwrist -0.56604
rhand -25.8129 6.37019
rfingers 7.12502
rthumb 0.726457 -23.6083
lclavicle -3.44891e-014 1.47101e-014
lhumerus -67.6942 -8.97347 76.4865
lradius 66.2203
lwrist 2.50362
lhand -28.2151 -14.9968
lfingers 7.12502
lthumb -1.59363 14.977
rfemur -7.00494 -8.40666 29.6499
rtibia 68.6688
rfoot -23.2072 1.05717
rtoes -40.4334
lfemur -48.4442 -4.41008 -10.646
ltibia 30.4664
lfoot -7.08357 -1.02281
ltoes -24.0685
68
root -0.489302 15.6346 5.88521 -185.329 2.92778 -173.51
lowerback 12.5844 3.4285 5.02064
upperback 1.25123 5.78076 3.36572
thorax -5.59255 2.89625 -0.274658
lowerneck -12.779 -4.14219 -4.32233
upperneck 9.53426 -4.99705 1.57858
head 5.10105 -2.5012 0.781533
rclavicle 3.60173e-014 -3.97569e-016
rhumerus -30.8123 14.7229 -76.1465
rradius 80.375
rwrist -0.240993
rhand -25.646 6.57103
rfingers 7.12502
rthumb 0.887605 -23.4069
lclavicle 3.60173e-014 -3.97569e-016
lhumerus -69.5602 -8.68532 76.0591
lradius 66.2782
lwrist 2.85012
lhand -28.1799 -15.0697
lfingers 7.12502
lthumb -1.55971 14.9043
rfemur -4.46111 -8.18898 29.7364
rtibia 67.6664
rfoot -22.7136 2.20161
rtoes -40.7055
lfemur -47.6912 -3.60215 -10.7924
ltibia 30.5608
lfoot -7.02328 -0.557726
ltoes -23.5
69
root -0.487358 15.588 5.3677 -185.616 3.42838 -172.9
lowerback 12.0294 3.52138 5.59218
upperback 0.896973 5.97204 3.60733
thorax -5.62376 2.97333 -0.339353
lowerneck -12.6153 -4.06687 -4.29731
upperneck 10.3451 -4.92361 1.52826
head 5.32359 -2.47721 0.762912
rclavicle 2.87182e-014 2.78299e-015
rhumerus -30.4494 15.0032 -76.8114
rradius 81.0131
rwrist 0.252195
rhand -25.4948 6.77145
rfingers 7.12502
rthumb 1.03371 -23.2058
lclavicle 2.87182e-014 2.78299e-015
lhumerus -71.4271 -8.40266 75.6014
lradius 66.3488
lwrist 3.14555
lhand -28.1185 -15.1407
lfingers 7.12502
lthumb -1.50039 14.8338
rfemur -2.0726 -8.07967 29.8327
rtibia 66.8191
rfoot -21.921 3.37282
rtoes -40.8377
lfemur -47.0892 -2.79473 -10.9244
ltibia 31.4522
lfoot -6.52017 -0.325081
ltoes -23.9564
70
root -0.484945 15.5347 4.85944 -185.909 3.85707 -172.32
lowerback 11.606 3.57658 6.12749
upperback 0.517641 6.12291 3.8384
thorax -5.75751 3.02878 -0.397513
lowerneck -12.4461 -3.9782 -4.24839
upperneck 11.0639 -4.84259 1.50061
head 5.51661 -2.44852 0.749284
rclavicle -5.55883e-014 1.43125e-014
rhumerus -30.1794 15.1435 -77.5268
rradius 81.6072
rwrist 0.847983
rhand -25.3734 6.97187
rfingers 7.12502
rthumb 1.15094 -23.0048
lclavicle -5.55883e-014 1.43125e-014
lhumerus -73.2532 -8.1135 75.1142
lradius 66.4059
lwrist 3.37096
lhand -28.0249 -15.1738
lfingers 7.12502
lthumb -1.40994 14.8013
rfemur 0.103058 -8.05972 29.8829
rtibia 66.208
rfoot -20.7632 4.5704
rtoes -40.8096
lfemur -46.6715 -2.0745 -11.0151
ltibia 32.973
lfoot -5.31409 -0.385805
ltoes -24.4377
71
root -0.481885 15.4803 4.36492 -186.207 4.18598 -171.86
lowerback 11.3219 3.59592 6.53904
upperback 0.127083 6.22203 4.0336
thorax -5.99141 3.05726 -0.427364
lowerneck -12.2796 -3.88215 -4.19058
upperneck 11.6761 -4.757 1.49677
head 5.67718 -2.41591 0.743158
rclavicle -6.69407e-014 7.95139e-016
rhumerus -30.0091 15.11 -78.2982
rradius 82.1975
rwrist 1.48277
rhand -25.2746 7.14974
rfingers 7.12502
rthumb 1.24631 -22.8264
lclavicle -6.69407e-014 7.95139e-016
lhumerus -74.9791 -7.79194 74.6012
lradius 66.4052
lwrist 3.51681
lhand -27.9074 -15.1342
lfingers 7.12502
lthumb -1.29647 14.8416
rfemur 1.99939 -8.12029 29.793
rtibia 65.9016
rfoot -19.1942 5.74474
rtoes -40.5967
lfemur -46.4473 -1.46878 -11.1571
ltibia 35.0122
lfoot -3.32826 -0.765501
ltoes -23.8794
72
root -0.476605 15.4299 3.88799 -186.503 4.37587 -171.645
lowerback 11.1663 3.58581 6.68571
upperback -0.259588 6.25043 4.1602
thorax -6.31581 3.05141 -0.382669
lowerneck -12.1281 -3.78552 -4.14215
upperneck 12.1684 -4.67077 1.52446
head 5.80371 -2.38029 0.749467
rclavicle 4.13721e-014 2.74323e-014
rhumerus -29.9437 14.8614 -79.1419
rradius 82.818
rwrist 2.11228
rhand -25.1989 7.29881
rfingers 7.12502
rthumb 1.31946 -22.6769
lclavicle 4.13721e-014 2.74323e-014
lhumerus -76.5276 -7.40291 74.0597
lradius 66.2877
lwrist 3.57483
lhand -27.7808 -15.0756
lfingers 7.12502
lthumb -1.17418 14.9009
rfemur 3.54381 -8.2462 29.4468
rtibia 65.9692
rfoot -17.2726 6.79721
rtoes -40.2486
lfemur -46.452 -1.0219 -11.4771
ltibia 37.4836
lfoot -0.9147 -1.37211
ltoes -22.6418
73
root -0.467454 15.3846 3.43137 -186.812 4.39646 -171.735
lowerback 11.1378 3.55565 6.50018
upperback -0.608521 6.20334 4.20081
thorax -6.69864 3.01274 -0.242715
lowerneck -12.0283 -3.70372 -4.13353
upperneck 12.5257 -4.59783 1.60695
head 5.89918 -2.34644 0.778756
rclavicle -2.44505e-014 -4.69132e-014
rhumerus -29.9729 14.3485 -80.0506
rradius 83.4946
rwrist 2.69807
rhand -25.1683 7.42327
rfingers 7.12502
rthumb 1.34898 -22.5522
lclavicle -2.44505e-014 -4.69132e-014
lhumerus -77.7913 -6.93639 73.5101
lradius 66.0011
lwrist 3.55856
lhand -27.6825 -14.9818
lfingers 7.12502
lthumb -1.07929 14.9952
rfemur 4.70464 -8.43121 28.8043
rtibia 66.4542
rfoot -15.1443 7.62712
rtoes -39.8524
lfemur -46.6887 -0.707476 -12.0689
ltibia 40.3209
lfoot 1.61851 -2.17302
ltoes -20.2835
